<svg width="24" height="24" viewBox="0 0 24 24" fill="none" xmlns="http://www.w3.org/2000/svg">
<g clip-path="url(#clip0)">
<path d="M17.3988 16.5V10.2C17.3988 7.689 15.6798 5.574 13.3488 4.98V4.35C13.3488 3.603 12.7458 3 11.9988 3C11.2518 3 10.6488 3.603 10.6488 4.35V4.98C8.31783 5.574 6.59883 7.689 6.59883 10.2V16.5H5.69883C5.20383 16.5 4.79883 16.905 4.79883 17.4C4.79883 17.895 5.20383 18.3 5.69883 18.3H18.2988C18.7938 18.3 19.1988 17.895 19.1988 17.4C19.1988 16.905 18.7938 16.5 18.2988 16.5H17.3988Z" fill="#3E8CB9"/>
<path d="M12.0012 20.9997C12.9912 20.9997 13.8012 20.1897 13.8012 19.1997H10.2012C10.2012 20.1897 11.0112 20.9997 12.0012 20.9997Z" fill="#3E8CB9"/>
</g>
<defs>
<clipPath id="clip0">
<rect width="24" height="24" fill="white"/>
</clipPath>
</defs>
</svg>
