<svg width="40" height="40" viewBox="0 0 40 40" fill="none" xmlns="http://www.w3.org/2000/svg">
<path d="M20 3.33325C11.7167 3.33325 5 10.0499 5 18.3333V29.9999C5 31.8333 6.5 33.3333 8.33333 33.3333H11.6667C13.5 33.3333 15 31.8333 15 29.9999V23.3333C15 21.4999 13.5 19.9999 11.6667 19.9999H8.33333V18.3333C8.33333 11.8833 13.55 6.66659 20 6.66659C26.45 6.66659 31.6667 11.8833 31.6667 18.3333V19.9999H28.3333C26.5 19.9999 25 21.4999 25 23.3333V29.9999C25 31.8333 26.5 33.3333 28.3333 33.3333H31.6667V34.9999H21.6667C20.75 34.9999 20 35.7499 20 36.6666C20 37.5833 20.75 38.3333 21.6667 38.3333H31.6667C33.5 38.3333 35 36.8333 35 34.9999V18.3333C35 10.0499 28.2833 3.33325 20 3.33325Z" fill="white"/>
</svg>
