<svg width="24" height="24" viewBox="0 0 24 24" fill="none" xmlns="http://www.w3.org/2000/svg">
<path d="M17.5535 12.2049C17.5535 12.0346 17.5461 11.8717 17.5313 11.7014L18.9086 10.6573C19.2048 10.4352 19.2862 10.0205 19.1011 9.69469L17.7164 7.3029C17.5313 6.97709 17.1314 6.8438 16.7908 6.9919L15.1987 7.66574C14.9247 7.47322 14.6359 7.3029 14.3323 7.16221L14.1176 5.45168C14.0732 5.08143 13.7548 4.80005 13.3845 4.80005H10.6225C10.2448 4.80005 9.92643 5.08143 9.88201 5.45168L9.66726 7.16221C9.36366 7.3029 9.07487 7.47322 8.80089 7.66574L7.20884 6.9919C6.86821 6.8438 6.46835 6.97709 6.28323 7.3029L4.89851 9.70209C4.71339 10.0279 4.79484 10.4352 5.09104 10.6647L6.46835 11.7088C6.45354 11.8717 6.44613 12.0346 6.44613 12.2049C6.44613 12.3753 6.45354 12.5382 6.46835 12.7085L5.09104 13.7526C4.79484 13.9747 4.71339 14.3894 4.89851 14.7152L6.28323 17.107C6.46835 17.4328 6.86821 17.5661 7.20884 17.418L8.80089 16.7441C9.07487 16.9367 9.36366 17.107 9.66726 17.2477L9.88201 18.9582C9.92643 19.3285 10.2448 19.6098 10.6151 19.6098H13.3771C13.7474 19.6098 14.0658 19.3285 14.1102 18.9582L14.3249 17.2477C14.6285 17.107 14.9173 16.9367 15.1913 16.7441L16.7834 17.418C17.124 17.5661 17.5239 17.4328 17.709 17.107L19.0937 14.7152C19.2788 14.3894 19.1974 13.9821 18.9012 13.7526L17.5239 12.7085C17.5461 12.5382 17.5535 12.3753 17.5535 12.2049ZM12.0294 14.7967C10.6003 14.7967 9.43771 13.6341 9.43771 12.2049C9.43771 10.7758 10.6003 9.61323 12.0294 9.61323C13.4586 9.61323 14.6211 10.7758 14.6211 12.2049C14.6211 13.6341 13.4586 14.7967 12.0294 14.7967Z" fill="#3E8CB9"/>
</svg>
