<svg width="40" height="40" viewBox="0 0 40 40" fill="none" xmlns="http://www.w3.org/2000/svg">
<path d="M31.6667 5.00008H24.7C24 3.06675 22.1667 1.66675 20 1.66675C17.8333 1.66675 16 3.06675 15.3 5.00008H8.33333C6.5 5.00008 5 6.50008 5 8.33341V31.6667C5 33.5001 6.5 35.0001 8.33333 35.0001H31.6667C33.5 35.0001 35 33.5001 35 31.6667V8.33341C35 6.50008 33.5 5.00008 31.6667 5.00008ZM20 4.58341C20.6833 4.58341 21.25 5.15008 21.25 5.83341C21.25 6.51675 20.6833 7.08341 20 7.08341C19.3167 7.08341 18.75 6.51675 18.75 5.83341C18.75 5.15008 19.3167 4.58341 20 4.58341ZM21.6667 28.3334H13.3333C12.4167 28.3334 11.6667 27.5834 11.6667 26.6667C11.6667 25.7501 12.4167 25.0001 13.3333 25.0001H21.6667C22.5833 25.0001 23.3333 25.7501 23.3333 26.6667C23.3333 27.5834 22.5833 28.3334 21.6667 28.3334ZM26.6667 21.6667H13.3333C12.4167 21.6667 11.6667 20.9167 11.6667 20.0001C11.6667 19.0834 12.4167 18.3334 13.3333 18.3334H26.6667C27.5833 18.3334 28.3333 19.0834 28.3333 20.0001C28.3333 20.9167 27.5833 21.6667 26.6667 21.6667ZM26.6667 15.0001H13.3333C12.4167 15.0001 11.6667 14.2501 11.6667 13.3334C11.6667 12.4167 12.4167 11.6667 13.3333 11.6667H26.6667C27.5833 11.6667 28.3333 12.4167 28.3333 13.3334C28.3333 14.2501 27.5833 15.0001 26.6667 15.0001Z" fill="white"/>
</svg>
