<svg width="40" height="40" viewBox="0 0 40 40" fill="none" xmlns="http://www.w3.org/2000/svg">
<path d="M33.333 3.33325H6.68301C4.84967 3.33325 3.34967 4.81659 3.34967 6.66658L3.33301 32.6332C3.33301 34.1166 5.13301 34.8666 6.18301 33.8166L9.99967 29.9999H33.333C35.1663 29.9999 36.6663 28.4999 36.6663 26.6666V6.66658C36.6663 4.83325 35.1663 3.33325 33.333 3.33325ZM11.6663 14.9999H28.333C29.2497 14.9999 29.9997 15.7499 29.9997 16.6666C29.9997 17.5833 29.2497 18.3333 28.333 18.3333H11.6663C10.7497 18.3333 9.99967 17.5833 9.99967 16.6666C9.99967 15.7499 10.7497 14.9999 11.6663 14.9999ZM21.6663 23.3333H11.6663C10.7497 23.3333 9.99967 22.5833 9.99967 21.6666C9.99967 20.7499 10.7497 19.9999 11.6663 19.9999H21.6663C22.583 19.9999 23.333 20.7499 23.333 21.6666C23.333 22.5833 22.583 23.3333 21.6663 23.3333ZM28.333 13.3333H11.6663C10.7497 13.3333 9.99967 12.5833 9.99967 11.6666C9.99967 10.7499 10.7497 9.99992 11.6663 9.99992H28.333C29.2497 9.99992 29.9997 10.7499 29.9997 11.6666C29.9997 12.5833 29.2497 13.3333 28.333 13.3333Z" fill="white"/>
</svg>
